<?xml version="1.0" standalone="no"?>
<!DOCTYPE svg PUBLIC "-//W3C//DTD SVG 20010904//EN"
 "http://www.w3.org/TR/2001/REC-SVG-20010904/DTD/svg10.dtd">
<svg version="1.0" xmlns="http://www.w3.org/2000/svg"
 width="192.000000pt" height="192.000000pt" viewBox="0 0 192.000000 192.000000"
 preserveAspectRatio="xMidYMid meet">
<metadata>
Created by potrace 1.14, written by Peter Selinger 2001-2017
</metadata>
<g transform="translate(0.000000,192.000000) scale(0.100000,-0.100000)"
fill="#000000" stroke="none">
<path d="M777 1893 c-21 -2 -64 -20 -96 -38 -32 -19 -87 -44 -122 -55 -92 -31
-150 -61 -171 -90 -16 -22 -17 -32 -6 -87 10 -55 9 -72 -12 -155 -24 -97 -28
-202 -10 -268 5 -20 9 -75 9 -123 -2 -85 -2 -86 -28 -89 -42 -5 -53 -39 -46
-146 4 -65 12 -108 29 -145 25 -57 95 -127 126 -127 12 0 20 -7 20 -16 0 -9
10 -50 22 -92 33 -113 83 -186 192 -277 27 -22 58 -48 70 -58 40 -35 143 -77
188 -77 67 1 173 33 209 63 10 9 19 14 19 10 0 -18 187 189 207 228 22 46 47
127 58 192 3 21 12 37 19 37 19 0 93 83 110 122 23 54 46 143 46 175 0 17 -9
42 -21 57 -17 22 -28 26 -70 26 l-50 0 4 55 c2 30 7 58 10 62 4 3 7 28 7 54 0
34 5 51 16 57 26 14 20 128 -10 194 -13 29 -27 68 -31 85 -3 18 -17 54 -31 80
-13 27 -24 52 -24 57 0 20 -73 96 -122 126 -29 18 -69 43 -88 56 -19 13 -44
25 -55 27 -11 2 -40 14 -65 27 -90 47 -191 64 -303 53z"/>
</g>
</svg>
